<svg width="101" height="100" viewBox="0 0 101 100" fill="none" xmlns="http://www.w3.org/2000/svg">
<path d="M50.5 8.33325C27.5417 8.33325 8.83334 27.0416 8.83334 49.9999C8.83334 72.9583 27.5417 91.6666 50.5 91.6666C73.4583 91.6666 92.1667 72.9583 92.1667 49.9999C92.1667 27.0416 73.4583 8.33325 50.5 8.33325ZM47.375 33.3333C47.375 31.6249 48.7917 30.2083 50.5 30.2083C52.2083 30.2083 53.625 31.6249 53.625 33.3333V54.1666C53.625 55.8749 52.2083 57.2916 50.5 57.2916C48.7917 57.2916 47.375 55.8749 47.375 54.1666V33.3333ZM54.3333 68.2499C54.125 68.7916 53.8333 69.2082 53.4583 69.6249C53.0417 69.9999 52.5833 70.2916 52.0833 70.4999C51.5833 70.7082 51.0417 70.8332 50.5 70.8332C49.9583 70.8332 49.4167 70.7082 48.9167 70.4999C48.4167 70.2916 47.9583 69.9999 47.5417 69.6249C47.1667 69.2082 46.875 68.7916 46.6667 68.2499C46.4583 67.7499 46.3333 67.2082 46.3333 66.6666C46.3333 66.1249 46.4583 65.5832 46.6667 65.0832C46.875 64.5832 47.1667 64.1249 47.5417 63.7082C47.9583 63.3332 48.4167 63.0416 48.9167 62.8332C49.9167 62.4166 51.0833 62.4166 52.0833 62.8332C52.5833 63.0416 53.0417 63.3332 53.4583 63.7082C53.8333 64.1249 54.125 64.5832 54.3333 65.0832C54.5417 65.5832 54.6667 66.1249 54.6667 66.6666C54.6667 67.2082 54.5417 67.7499 54.3333 68.2499Z" fill="#F59E0B"/>
</svg>
