<svg width="101" height="100" viewBox="0 0 101 100" fill="none" xmlns="http://www.w3.org/2000/svg">
<path d="M50.5 8.33325C27.5416 8.33325 8.83331 27.0416 8.83331 49.9999C8.83331 72.9583 27.5416 91.6666 50.5 91.6666C73.4583 91.6666 92.1666 72.9583 92.1666 49.9999C92.1666 27.0416 73.4583 8.33325 50.5 8.33325ZM70.4166 40.4166L46.7916 64.0416C46.2083 64.6249 45.4166 64.9583 44.5833 64.9583C43.75 64.9583 42.9583 64.6249 42.375 64.0416L30.5833 52.2499C29.375 51.0416 29.375 49.0416 30.5833 47.8332C31.7916 46.6249 33.7916 46.6249 35 47.8332L44.5833 57.4166L66 35.9999C67.2083 34.7916 69.2083 34.7916 70.4166 35.9999C71.625 37.2083 71.625 39.1666 70.4166 40.4166Z" fill="#45C071"/>
</svg>
